#!OML:ASF H:\Terrain\Patient Classification 1\Walking\steve\steve.ASF
:FULLY-SPECIFIED
:DEGREES
200
root 7.60637 16.2225 3.71461 6.02015 1.83347 3.87075
lowerback -0.153582 0.537154 -5.18086
upperback -2.5381 0.648132 -0.147943
thorax -2.5867 0.436758 2.73688
lowerneck -11.2346 -1.31748 -1.78522
upperneck 16.3025 -1.5138 0.260786
head 6.84413 -0.814171 0.240294
rclavicle -1.53406e-014 1.11319e-014
rhumerus -69.0876 -28.9336 -51.5214
rradius 15.5136
rwrist 17.8982
rhand -15.5901 -39.7895
rfingers 7.12502
rthumb 10.5955 -69.5024
lclavicle -1.53406e-014 1.11319e-014
lhumerus -13.0233 -14.1269 88.0259
lradius 44.1684
lwrist 24.7939
lhand -25.1626 -13.7685
lfingers 7.12502
lthumb 1.35449 16.207
rfemur -41.1316 0.320034 18.4573
rtibia 26.2453
rfoot -14.5239 0.493477
rtoes -4.42384
lfemur 7.05673 3.35136 -27.141
ltibia 11.1517
lfoot -12.5526 -10.8226
ltoes 8.28409
201
root 7.60887 16.2288 3.95767 5.96057 2.42262 4.14098
lowerback -0.286616 0.371636 -5.20051
upperback -2.43202 0.436746 -0.238093
thorax -2.383 0.323534 2.66106
lowerneck -10.9584 -1.30361 -1.37877
upperneck 15.7277 -1.5103 -0.10423
head 6.60499 -0.817675 0.0602013
rclavicle 7.74018e-015 -1.64991e-014
rhumerus -71.1312 -29.5864 -48.7849
rradius 15.0985
rwrist 19.59
rhand -15.6096 -40.1322
rfingers 7.12502
rthumb 10.5768 -69.8461
lclavicle 7.74018e-015 -1.64991e-014
lhumerus -12.1178 -14.8396 87.6695
lradius 45.2548
lwrist 25.4747
lhand -24.9126 -13.1945
lfingers 7.12502
lthumb 1.59597 16.7793
rfemur -41.3545 -0.872851 18.4845
rtibia 24.9045
rfoot -14.4825 1.81444
rtoes -3.41544
lfemur 9.66519 2.58797 -27.2962
ltibia 8.04385
lfoot -11.31 -10.1889
ltoes 9.23138
202
root 7.60665 16.2067 4.1864 6.12151 2.78263 4.13334
lowerback -0.403961 0.284702 -5.07395
upperback -2.47552 0.329453 -0.16106
thorax -2.35194 0.268338 2.6721
lowerneck -10.6542 -1.3704 -1.45405
upperneck 15.2354 -1.58691 -0.145771
head 6.39587 -0.86123 0.0566491
rclavicle 1.00635e-014 -7.95139e-015
rhumerus -73.6224 -30.5648 -44.7761
rradius 14.5796
rwrist 22.3165
rhand -15.8101 -40.4361
rfingers 7.12502
rthumb 10.3834 -70.1597
lclavicle 1.00635e-014 -7.95139e-015
lhumerus -11.4709 -15.3422 87.5099
lradius 46.4992
lwrist 25.9768
lhand -25.1576 -14.0076
lfingers 7.12502
lthumb 1.35932 15.9678
rfemur -42.1534 -2.11092 19.1299
rtibia 23.9153
rfoot -14.2344 3.34337
rtoes -3.6431
lfemur 13.0929 2.06053 -27.2911
ltibia 2.70941
lfoot -9.16142 -8.75288
ltoes 7.71412
203
root 7.60459 16.1681 4.41017 6.36436 3.22265 4.51931
lowerback -0.560122 0.117826 -5.29368
upperback -2.49997 0.113157 -0.198851
thorax -2.27259 0.162934 2.76024
lowerneck -10.4805 -1.36845 -1.73133
upperneck 14.8425 -1.58823 0.146612
head 6.24577 -0.852903 0.197727
rclavicle 1.28589e-015 6.36111e-015
rhumerus -75.4855 -30.9695 -42.0768
rradius 14.3499
rwrist 23.9282
rhand -15.876 -40.8104
rfingers 7.12502
rthumb 10.3198 -70.5372
lclavicle 1.28589e-015 6.36111e-015
lhumerus -10.7588 -15.3444 87.2789
lradius 47.535
lwrist 25.9246
lhand -25.0022 -15.1683
lfingers 7.12502
lthumb 1.50942 14.8061
rfemur -43.2009 -3.95493 19.7304
rtibia 23.3611
rfoot -13.9309 5.27639
rtoes -4.16176
lfemur 15.1696 1.41604 -27.7232
ltibia -1.90833e-014
lfoot -7.9735 -8.02978
ltoes 5.83769
204
root 7.59344 16.1446 4.63871 6.53668 3.47058 4.57188
lowerback -0.685847 0.0493288 -5.29624
upperback -2.56093 0.0292715 -0.118801
thorax -2.25775 0.122855 2.84555
lowerneck -10.3156 -1.30693 -1.88337
upperneck 14.6253 -1.49569 0.231291
head 6.14952 -0.809184 0.259076
rclavicle -5.33613e-015 1.11319e-014
rhumerus -77.7415 -31.3578 -38.7259
rradius 14.2171
rwrist 25.9843
rhand -15.7674 -40.6069
rfingers 7.12502
rthumb 10.4245 -70.3284
lclavicle -5.33613e-015 1.11319e-014
lhumerus -10.0991 -15.3062 87.1167
lradius 48.3632
lwrist 25.6041
lhand -24.8207 -15.2182
lfingers 7.12502
lthumb 1.68472 14.7549
rfemur -43.8519 -4.73479 20.264
rtibia 22.9038
rfoot -13.6735 5.94853
rtoes -7.01182
lfemur 15.9345 0.966589 -27.6531
ltibia 9.54166e-015
lfoot -7.72564 -8.11874
ltoes 6.54567
205
root 7.59313 16.1174 4.86379 6.48683 3.60254 4.5246
lowerback -0.405758 0.0429772 -5.06472
upperback -2.65962 0.00470968 -0.0214221
thorax -2.51429 0.115161 2.81646
lowerneck -10.4107 -1.27353 -1.71973
upperneck 14.7718 -1.39927 -0.240657
head 6.20694 -0.791191 0.0894935
rclavicle -5.43862e-015 2.78299e-015
rhumerus -78.9577 -30.9064 -37.4599
rradius 14.3272
rwrist 26.0944
rhand -16.0105 -40.2432
rfingers 7.12502
rthumb 10.19 -69.9764
lclavicle -5.43862e-015 2.78299e-015
lhumerus -9.93445 -15.1189 87.1794
lradius 49.6081
lwrist 25.3149
lhand -25.3094 -13.7829
lfingers 7.12502
lthumb 1.21276 16.1934
rfemur -44.0814 -4.64043 20.2296
rtibia 22.8303
rfoot -13.5485 6.38766
rtoes -11.6136
lfemur 16.8376 0.674546 -27.5169
ltibia 7.95139e-014
lfoot -7.22882 -8.24063
ltoes 8.69416
206
root 7.60217 16.0833 5.08287 6.45671 3.49326 4.63554
lowerback -0.198291 0.0473776 -4.89097
upperback -2.64839 0.00124695 -0.000621517
thorax -2.61831 0.112073 2.74056
lowerneck -10.7469 -1.20139 -1.51927
upperneck 14.8543 -1.25308 -0.701709
head 6.28591 -0.746713 -0.0800539
rclavicle -4.72114e-016 -1.03368e-014
rhumerus -79.2272 -30.3721 -37.4333
rradius 14.3459
rwrist 25.4949
rhand -15.9799 -40.2571
rfingers 7.12502
rthumb 10.2196 -69.9889
lclavicle -4.72114e-016 -1.03368e-014
lhumerus -9.74894 -15.241 87.0036
lradius 50.9969
lwrist 25.5712
lhand -26.0664 -12.7953
lfingers 7.12502
lthumb 0.481569 17.1839
rfemur -44.227 -3.37479 19.2253
rtibia 23.0582
rfoot -13.8498 6.69377
rtoes -5.38245
lfemur 17.665 0.612256 -27.6232
ltibia -2.22639e-014
lfoot -6.85322 -8.22975
ltoes 6.33127
207
root 7.60665 16.0623 5.30976 6.44656 3.58893 5.00405
lowerback -0.14403 -0.0459383 -5.00635
upperback -2.559 -0.126042 -0.0287491
thorax -2.54605 0.0473011 2.77893
lowerneck -10.9844 -1.11545 -1.63508
upperneck 14.6977 -1.10248 -0.760698
head 6.27722 -0.68443 -0.0678069
rclavicle -2.60905e-015 3.97569e-015
rhumerus -80.5033 -30.7287 -34.7504
rradius 13.9566
rwrist 27.3988
rhand -15.3444 -40.373
rfingers 7.12502
rthumb 10.8326 -70.0736
lclavicle -2.60905e-015 3.97569e-015
lhumerus -9.42443 -15.2482 86.7528
lradius 52.0636
lwrist 25.9039
lhand -26.7287 -14.1033
lfingers 7.12502
lthumb -0.158019 15.8764
rfemur -44.378 -2.0124 17.7584
rtibia 23.6443
rfoot -14.1287 6.24935
rtoes -1.09447
lfemur 18.5461 0.319341 -27.9653
ltibia -3.18055e-015
lfoot -6.40447 -8.10724
ltoes 1.29917
208
root 7.60101 16.0159 5.54312 6.23574 3.92437 5.46009
lowerback 0.170919 -0.186211 -5.32906
upperback -2.47842 -0.33444 -0.0202196
thorax -2.62234 -0.0491593 2.97438
lowerneck -11.1132 -1.07142 -1.73489
upperneck 14.5696 -0.992169 -0.951491
head 6.25825 -0.651239 -0.102915
rclavicle -5.10628e-015 -1.07344e-014
rhumerus -81.254 -30.6509 -33.3916
rradius 13.8227
rwrist 27.983
rhand -14.8755 -40.6814
rfingers 7.12502
rthumb 11.2848 -70.3578
lclavicle -5.10628e-015 -1.07344e-014
lhumerus -9.40909 -14.4739 86.8702
lradius 53.0027
lwrist 25.6486
lhand -26.8384 -16.0426
lfingers 7.12502
lthumb -0.264035 13.937
rfemur -44.0438 -1.95678 17.23
rtibia 24.5732
rfoot -14.5613 5.62997
rtoes -6.27197
lfemur 19.7299 -0.187797 -28.374
ltibia 2.22639e-014
lfoot -5.6383 -7.90446
ltoes -1.5874
209
root 7.5965 15.9771 5.77929 5.94099 4.01233 5.62456
lowerback 0.491875 -0.232949 -5.32423
upperback -2.38367 -0.41234 0.0476675
thorax -2.69771 -0.0872562 3.04542
lowerneck -10.9891 -0.99753 -1.74494
upperneck 14.2542 -0.846355 -1.26548
head 6.13543 -0.603227 -0.186588
rclavicle -6.42944e-015 -5.56597e-015
rhumerus -81.2306 -30.1931 -33.8754
rradius 14.0838
rwrist 27.1892
rhand -14.6692 -41.0076
rfingers 7.12502
rthumb 11.4838 -70.673
lclavicle -6.42944e-015 -5.56597e-015
lhumerus -9.54859 -13.9202 86.9546
lradius 53.94
lwrist 25.5034
lhand -26.7901 -17.1009
lfingers 7.12502
lthumb -0.217373 12.8787
rfemur -43.6172 -1.1699 16.6551
rtibia 25.8279
rfoot -15.1474 5.11313
rtoes -7.87162
lfemur 20.9415 -0.42031 -28.478
ltibia -3.49861e-014
lfoot -4.41018 -7.69066
ltoes -1.00896
210
root 7.59887 15.9376 6.01901 5.74526 3.9746 5.72535
lowerback 0.668298 -0.28941 -5.17539
upperback -2.34129 -0.493045 0.0990892
thorax -2.74592 -0.129823 3.0184
lowerneck -10.7018 -0.85285 -1.84565
upperneck 13.9034 -0.631845 -1.34883
head 5.97517 -0.506755 -0.175756
rclavicle -1.92573e-014 -7.95139e-016
rhumerus -81.5228 -29.9258 -33.2797
rradius 14.0986
rwrist 27.6061
rhand -14.3086 -41.1757
rfingers 7.12502
rthumb 11.8315 -70.8215
lclavicle -1.92573e-014 -7.95139e-016
lhumerus -10.037 -13.8327 86.8944
lradius 55.1597
lwrist 25.8882
lhand -27.1998 -17.3897
lfingers 7.12502
lthumb -0.613023 12.5892
rfemur -43.1936 -0.518668 16.2501
rtibia 27.1034
rfoot -14.7497 5.52466
rtoes -3.65611
lfemur 22.0409 -0.539783 -28.5277
ltibia 4.77083e-014
lfoot -3.06339 -7.51554
ltoes -1.12609
211
root 7.59489 15.9025 6.2545 5.72922 4.09936 5.6923
lowerback 0.815575 -0.42049 -4.94975
upperback -2.45847 -0.672108 0.210395
thorax -2.93442 -0.215904 3.01416
lowerneck -10.4519 -0.710231 -1.81003
upperneck 13.7567 -0.412443 -1.61406
head 5.88531 -0.41614 -0.24582
rclavicle 1.48467e-015 7.15625e-015
rhumerus -81.1156 -29.2603 -34.0545
rradius 14.1305
rwrist 26.7994
rhand -13.8508 -41.6245
rfingers 7.12502
rthumb 12.273 -71.2443
lclavicle 1.48467e-015 7.15625e-015
lhumerus -10.925 -13.4251 87.018
lradius 56.6108
lwrist 26.1859
lhand -27.916 -17.294
lfingers 7.12502
lthumb -1.30483 12.6818
rfemur -43.0424 -0.472869 16.389
rtibia 28.5953
rfoot -13.4415 5.37421
rtoes -2.20994
lfemur 22.8969 -0.838952 -28.4121
ltibia 5.40694e-014
lfoot -1.83159 -7.359
ltoes -4.22367
212
root 7.59362 15.8829 6.49681 5.73917 3.92721 4.9495
lowerback 0.779443 -0.401003 -3.93202
upperback -2.57901 -0.615416 0.497398
thorax -3.04663 -0.20371 2.73769
lowerneck -10.4703 -0.579579 -1.68828
upperneck 13.8088 -0.180967 -2.08819
head 5.90469 -0.334154 -0.39692
rclavicle 1.45423e-014 -1.59028e-014
rhumerus -81.0373 -28.9708 -34.2535
rradius 14.3144
rwrist 26.4797
rhand -13.5204 -41.8344
rfingers 7.12502
rthumb 12.5915 -71.4349
lclavicle 1.45423e-014 -1.59028e-014
lhumerus -11.8336 -12.7422 87.284
lradius 57.9237
lwrist 26.1704
lhand -28.6142 -17.0966
lfingers 7.12502
lthumb -1.97911 12.874
rfemur -43.0872 -0.299094 17.4918
rtibia 29.9968
rfoot -10.9072 3.82669
rtoes -2.36911
lfemur 23.6839 -0.810984 -27.5382
ltibia -2.8625e-014
lfoot -0.244887 -7.04736
ltoes -7.02128
213
root 7.59837 15.8876 6.7596 5.61976 3.81728 5.02285
lowerback 0.690038 -0.409436 -3.68069
upperback -2.5589 -0.615245 0.555159
thorax -2.97626 -0.210757 2.65506
lowerneck -10.6166 -0.408804 -1.67786
upperneck 13.8526 0.103492 -2.40595
head 5.94516 -0.221219 -0.476483
rclavicle 1.17718e-014 -4.77083e-015
rhumerus -82.1495 -29.5277 -31.4763
rradius 14.0539
rwrist 28.9881
rhand -13.3981 -41.2942
rfingers 7.12502
rthumb 12.7094 -70.8874
lclavicle 1.17718e-014 -4.77083e-015
lhumerus -12.706 -12.3535 87.4572
lradius 59.1211
lwrist 26.3978
lhand -29.1652 -17.1748
lfingers 7.12502
lthumb -2.51123 12.7901
rfemur -42.9506 -0.41227 17.5471
rtibia 31.2049
rfoot -8.47059 2.60361
rtoes -4.80281
lfemur 24.6636 -0.864119 -27.6036
ltibia 8.26944e-014
lfoot 2.24905 -6.52704
ltoes -8.43928
